<svg width="66" height="75" viewBox="0 0 66 75" fill="none" xmlns="http://www.w3.org/2000/svg">
<path d="M30.4691 0.0224609C30.2964 0.0440445 29.6813 0.119583 29.1201 0.184334C23.7784 0.788651 18.1777 2.87138 13.8503 5.88218C11.3683 7.59801 8.49781 10.3066 6.73882 12.5836C0.274784 20.9793 -1.70004 32.2347 1.51579 42.3678C4.71004 52.4362 12.8899 60.7455 22.8072 63.983C26.4439 65.17 30.8144 65.7959 34.4079 65.6232C37.2245 65.4938 40.3863 65.0945 40.3863 64.8679C40.3863 64.447 35.7029 61.5441 34.1489 60.9937C33.6957 60.8319 34.095 60.8535 35.2173 61.0369C38.0662 61.5225 40.354 62.7096 43.4187 65.2995C44.6166 66.3139 49.3432 70.5549 51.2748 72.3571C52.3324 73.3391 53.2389 74.1484 53.2712 74.1484C53.3144 74.1484 54.318 73.1556 55.5051 71.9362C56.6813 70.7168 58.6238 68.7527 59.8 67.5549L61.9367 65.3858L59.4439 62.9686C58.0734 61.6412 56.8863 60.5405 56.8216 60.5189C56.7461 60.5081 56.4871 60.7563 56.2389 61.0801C54.6417 63.1196 51.6417 64.1448 48.5878 63.6916C45.4043 63.2276 41.5734 61.4794 36.7173 58.2743C35.6489 57.5621 35.1417 57.2815 34.9799 57.3247C34.559 57.4326 31.1705 57.152 29.7137 56.8822C28.1057 56.5801 26.7137 56.17 25.0734 55.5009C22.1273 54.3139 19.0842 52.1664 17.2928 50.0297C16.8935 49.5549 16.5266 49.1664 16.4726 49.1664C16.3 49.1664 15.3503 48.6808 14.4978 48.1628C11.1849 46.134 8.27119 41.6772 6.99781 36.7024C6.14529 33.3462 6.06975 29.5477 6.79278 25.9649C7.0086 24.9182 7.764 22.5657 7.94745 22.3822C8.08774 22.2419 9.04817 22.6736 9.04817 22.8678C9.04817 22.9541 8.95105 23.2887 8.83235 23.634C8.1417 25.6628 7.79637 28.3822 7.8935 31.1448C7.97983 33.3786 8.19565 34.6736 8.83235 36.5621C9.82515 39.5405 11.6597 41.8498 13.8611 42.8642C14.4547 43.1448 16.3324 43.7707 16.559 43.7707C16.5698 43.7707 16.6021 42.098 16.6237 40.0585L16.6561 36.3354L17.5734 35.3858C18.0806 34.8678 18.7496 34.1556 19.0518 33.8103L19.6129 33.1844L20.077 33.6916C20.3252 33.9613 20.6813 34.3714 20.8647 34.6088L21.1885 35.0405L21.2424 31.9218L21.2964 28.8139L21.6093 28.4362C21.782 28.2311 22.8719 27.0441 24.0482 25.8031L26.1849 23.5369L28.2676 23.0297C31.3647 22.2743 36.8899 21.0009 37.0842 21.0009C37.1489 21.0009 37.5266 21.4757 37.9259 22.0477C38.3252 22.6304 39.4799 24.2491 40.4942 25.6412L42.3396 28.1772L42.3719 30.1412C42.4151 32.429 42.2424 32.2131 43.8504 31.9541C44.3791 31.8678 44.8324 31.8139 44.8432 31.8354C44.8648 31.857 44.6273 32.0405 44.3144 32.2563C43.7317 32.6556 42.9655 32.9793 42.5986 32.9793C42.4043 32.9793 42.3935 33.1412 42.3935 37.188V41.3966H43.1273C43.5266 41.3966 43.9583 41.3642 44.0986 41.3319L44.336 41.2671V38.2239L44.3468 35.1916L45.5554 33.6592C46.2137 32.8175 46.7964 32.1268 46.8288 32.1268C46.872 32.116 47.0878 32.375 47.3252 32.6772C47.5626 32.9901 48.318 33.929 49.0086 34.7599L50.2712 36.2707V38.9793C50.2712 40.9757 50.3036 41.7203 50.4115 41.8498C50.4763 41.9362 50.9511 42.1304 51.4583 42.2599C52.9367 42.6376 54.2748 43.188 56.6921 44.3642C59.6705 45.8211 60.4475 46.0801 61.9259 46.0801L63.059 46.0909L63.4583 45.1412C65.2173 41.0405 66.1777 35.7959 65.9727 31.3606C65.5842 22.8678 62.2065 15.1412 56.3144 9.24909C52.7425 5.67714 47.6921 2.66635 42.9871 1.29585C39.5338 0.292244 37.8504 0.0548325 33.8683 0.0116653C32.1741 -0.00991058 30.6525 0.00087738 30.4691 0.0224609ZM36.7281 2.49368C39.0482 2.75268 41.7676 3.37858 43.7748 4.13398C50.4223 6.6052 55.8288 11.0944 59.4655 17.17C60.4367 18.7995 60.523 18.9829 60.523 19.4577C60.5122 20.062 60.113 20.4613 59.5302 20.4613C59.0878 20.4613 58.818 20.1592 58.2461 19.0369C56.3684 15.3894 53.0986 11.6987 49.5806 9.2383C44.2173 5.51527 37.5374 3.7131 31.1705 4.27426C26.0122 4.73829 21.2101 6.34621 17.4115 8.87139C15.9654 9.83183 14.8539 10.7815 13.3431 12.357C11.8539 13.911 11.5086 14.1592 11.0554 13.9865C10.71 13.857 10.3431 13.3714 10.3431 13.0261C10.3431 12.5836 10.6453 12.1951 12.1885 10.6736C13.8719 9.02247 14.3899 8.58002 16.0518 7.46851C20.1849 4.69513 25.0734 3.02246 30.8468 2.40736C31.8719 2.29944 35.4655 2.35339 36.7281 2.49368ZM36.2964 11.0297C39.6741 11.4829 42.7281 12.67 45.4691 14.58C51.6309 18.875 55.1274 26.2671 54.372 33.3894C54.113 35.8067 53.4763 38.1268 52.5806 39.9613C51.7712 41.6124 51.782 41.634 51.782 38.2239V35.2455L51.1345 34.4254L50.4871 33.616L50.5626 33.0009C50.6921 32.0297 50.6489 29.1268 50.4979 28.2311C49.6453 23.3103 45.9871 18.562 41.2496 16.2095C39.9115 15.5513 39.318 15.3354 37.8611 14.9577C33.6417 13.8894 29.0662 14.3966 25.1921 16.3822C23.7029 17.1484 22.3431 18.1628 20.9619 19.5333C18.5338 21.9505 17.1417 24.5297 16.4295 27.9074C16.2244 28.8786 16.1489 32.0944 16.3 33.098C16.3755 33.5944 16.3647 33.6052 15.7388 34.339L15.1021 35.0836L15.0913 38.0729C15.0913 39.7239 15.059 41.0729 15.0266 41.0729C14.6597 41.0729 13.4403 38.2995 12.9223 36.3031C12.2424 33.6268 12.21 30.1412 12.8359 27.098C13.7316 22.8031 16.1705 18.7023 19.5482 15.8426C24.1561 11.9361 30.1777 10.2095 36.2964 11.0297ZM34.0518 17.0189C34.1921 17.17 34.505 17.3534 34.7316 17.429C35.2496 17.58 35.282 17.7203 34.8396 17.8174C34.3 17.9361 33.8899 18.3678 33.6957 19.0153C33.5014 19.6843 33.3935 19.6951 33.2856 19.0477C33.1993 18.4865 32.6381 17.9146 32.0878 17.8067C31.8827 17.7743 31.7101 17.7095 31.7101 17.6664C31.7101 17.6232 31.9691 17.4829 32.2928 17.3426C32.9403 17.0728 33.1345 16.8462 33.3396 16.134L33.4691 15.6592L33.6309 16.1987C33.7173 16.4901 33.9007 16.8678 34.0518 17.0189ZM28.041 18.8966L28.5266 19.1448L28.1489 19.3067C27.6741 19.5009 27.4367 19.7707 27.2424 20.3103L27.1021 20.7311L26.9726 20.2779C26.8216 19.7491 26.5194 19.4254 26.0878 19.3282C25.6129 19.2203 25.6129 19.08 26.0985 18.9397C26.6057 18.7887 26.7784 18.6052 26.9619 18.0333L27.1021 17.6124L27.3288 18.1304C27.5122 18.5405 27.6633 18.7023 28.041 18.8966ZM40.7317 18.6808C40.9043 18.9397 40.9043 18.9721 40.7209 19.1664C40.4727 19.4361 40.1705 19.4469 40.0194 19.1772C39.8683 18.8858 39.8791 18.7779 40.0842 18.5836C40.3216 18.3354 40.5266 18.3678 40.7317 18.6808ZM23.7352 20.3858C23.9079 20.6124 23.8971 20.6448 23.7137 20.8822C23.5086 21.1304 23.4978 21.1304 23.2604 20.9362C23.1309 20.8282 23.0014 20.7203 22.9906 20.7095C22.9151 20.6772 23.3467 20.1484 23.4547 20.1484C23.5194 20.1484 23.6381 20.2563 23.7352 20.3858ZM43.3 21.7023C43.3755 22.0908 43.8288 22.7275 44.0446 22.7275C44.1201 22.7383 44.3252 22.8031 44.4978 22.8786L44.8216 23.0189L44.3576 23.1592C43.7856 23.3318 43.4079 23.7635 43.3108 24.3462C43.2676 24.5836 43.2029 24.7779 43.1597 24.7779C43.1165 24.7779 43.0302 24.5513 42.9547 24.2815C42.8036 23.7095 42.4151 23.2887 41.9619 23.2023C41.4763 23.0944 41.4763 22.9649 41.9619 22.8246C42.4907 22.6628 42.9007 22.2203 42.9978 21.7023C43.0302 21.4973 43.1058 21.3246 43.1489 21.3246C43.1921 21.3246 43.2676 21.4973 43.3 21.7023ZM20.9619 24.5513C21.3611 24.9937 20.8108 25.598 20.3144 25.2635C20.0338 25.08 19.9906 24.8858 20.1633 24.5513C20.3144 24.2923 20.7244 24.2815 20.9619 24.5513ZM46.2029 25.4038C46.3 25.8678 46.6561 26.2347 47.1525 26.3858L47.6166 26.5261L47.0662 26.7851C46.5266 27.0441 46.1705 27.5081 46.1705 27.9398C46.1705 28.2851 45.9763 28.2203 45.9115 27.8534C45.8036 27.3246 45.3719 26.8498 44.8432 26.7095C44.4007 26.5908 44.4007 26.58 44.6597 26.4721C45.5878 26.0836 45.6309 26.0513 45.8144 25.5333C46.0194 24.9613 46.1058 24.929 46.2029 25.4038ZM44.6597 29.9577C44.746 30.1088 44.746 30.2383 44.6597 30.3894C44.5194 30.6484 44.4655 30.6592 44.2065 30.4218C43.9799 30.2167 43.9691 30.1088 44.1525 29.9038C44.336 29.688 44.5302 29.7095 44.6597 29.9577Z" fill="#262FDC"/>
<path d="M36.512 21.9397C33.9112 22.5008 30.4364 23.3102 27.9868 23.9145C27.0911 24.1411 26.4868 24.3462 26.3249 24.4973C26.1846 24.616 25.181 25.6627 24.0911 26.8174L22.1055 28.9217V36.3246V43.7383L22.7314 43.652C23.8321 43.5009 25.2026 43.134 27.4256 42.4109C29.5515 41.7095 30.8681 41.3102 31.7745 41.0728L32.2278 40.9649V34.4253V27.8857L32.9076 27.0116C33.2853 26.526 34.3321 25.1879 35.2386 24.044C36.1451 22.9001 36.8897 21.9505 36.8897 21.9181C36.8897 21.8642 36.8465 21.8642 36.512 21.9397ZM28.8932 31.7275C28.9148 33.5188 28.9148 33.5188 27.9436 33.5188H27.3932V31.9541C27.3932 30.2275 27.3177 30.4109 28.0947 30.2491C28.2134 30.2167 28.44 30.1951 28.6019 30.1843L28.8825 30.1735L28.8932 31.7275ZM25.4184 33.6915C25.3968 33.7131 25.0839 33.767 24.717 33.7994L24.0479 33.875V32.2994V30.7239L24.5659 30.6591C24.8465 30.6268 25.1486 30.5836 25.235 30.5728C25.3753 30.5512 25.3968 30.7994 25.4292 32.1052C25.44 32.9577 25.44 33.6699 25.4184 33.6915ZM28.8825 36.6483C28.8932 37.4469 28.8717 38.1699 28.8177 38.2455C28.7637 38.3318 28.4292 38.4181 28.0515 38.4505L27.3825 38.5153L27.4148 36.9073L27.4472 35.2994L27.9868 35.2347C28.904 35.1268 28.8393 35.0296 28.8825 36.6483ZM25.4292 36.9397L25.3968 38.5368L24.7278 38.5692L24.0479 38.6016V37.0908C24.0479 35.3965 23.9832 35.526 24.9112 35.4289C25.1163 35.4073 25.3213 35.375 25.3753 35.375C25.4184 35.3642 25.44 36.0656 25.4292 36.9397Z" fill="#262FDC"/>
<path d="M36.9224 25.8777C36.1455 26.0827 35.8865 27.0863 36.4476 27.7122C36.7174 28.0144 36.8361 28.0684 37.2678 28.0684C37.6994 28.0684 37.8181 28.0144 38.0879 27.7122C38.8757 26.8274 38.0771 25.5648 36.9224 25.8777Z" fill="#262FDC"/>
<path d="M34.2457 29.8496C34.2134 29.9035 34.2134 30.3136 34.2565 30.7668L34.3321 31.5762H35.3896H36.458V30.6589V29.7416H35.3896C34.7961 29.7416 34.2781 29.7848 34.2457 29.8496Z" fill="#262FDC"/>
<path d="M38.0771 30.6589V31.5762H39.1563H40.2354V30.6589V29.7416H39.1563H38.0771V30.6589Z" fill="#262FDC"/>
<path d="M34.2998 33.6161V34.4902H35.3789H36.4581V33.6809V32.8715H35.5516C35.0552 32.8715 34.5696 32.8392 34.4725 32.8068C34.3214 32.7528 34.2998 32.8607 34.2998 33.6161Z" fill="#262FDC"/>
<path d="M38.0771 33.6809V34.4902H39.1563H40.2354V33.6809V32.8715H39.1563H38.0771V33.6809Z" fill="#262FDC"/>
<path d="M46.3321 34.3283C45.7602 34.8895 46.1379 35.7852 46.9364 35.7852C47.3681 35.7852 47.4976 35.7096 47.6702 35.3859C47.9832 34.7816 47.5839 34.0585 46.9256 34.0585C46.7206 34.0585 46.494 34.1557 46.3321 34.3283Z" fill="#262FDC"/>
<path d="M34.2998 36.616V37.5117H35.3789H36.4581V36.5837V35.6664L35.3789 35.6988L34.2998 35.7311V36.616Z" fill="#262FDC"/>
<path d="M38.0771 36.5944V37.5225L39.1347 37.4901L40.1815 37.4577L40.2138 36.562L40.2462 35.6771H39.1563H38.0771V36.5944Z" fill="#262FDC"/>
<path d="M19.9475 37.3175V37.9434H20.541H21.1346V37.3175V36.7024H20.541H19.9475V37.3175Z" fill="#262FDC"/>
<path d="M17.5732 37.3498V37.9434H18.2207H18.8682V37.3498V36.7563H18.2207H17.5732V37.3498Z" fill="#262FDC"/>
<path d="M45.5232 37.4469V38.1699L46.1491 38.1375L46.7642 38.1052L46.7858 37.544C46.7966 37.2311 46.7642 36.9505 46.721 36.9289C46.6779 36.8965 46.3865 36.8426 46.0843 36.7994L45.5232 36.7239V37.4469Z" fill="#262FDC"/>
<path d="M48.0051 37.4577V38.1592H48.6526H49.3001V37.4577V36.7563H48.6526H48.0051V37.4577Z" fill="#262FDC"/>
<path d="M34.2998 39.6164V40.4258H35.3789H36.4581V39.6164V38.8071H35.3789H34.2998V39.6164Z" fill="#262FDC"/>
<path d="M38.0771 39.6164V40.4258H39.1563H40.2354V39.6164V38.8071H39.1563H38.0771V39.6164Z" fill="#262FDC"/>
<path d="M18.0912 39.098L17.5732 39.1411V39.7346V40.3174H18.2207H18.8682V39.6699C18.8682 39.2167 18.825 39.0332 18.7387 39.044C18.6632 39.0548 18.3718 39.0764 18.0912 39.098Z" fill="#262FDC"/>
<path d="M19.9475 39.6699V40.3174H20.541H21.1346V39.6699V39.0224H20.541H19.9475V39.6699Z" fill="#262FDC"/>
<path d="M45.5232 39.951V40.6416H46.1707H46.8182V40.0481C46.8182 39.3898 46.8182 39.3898 46.0412 39.3143L45.5232 39.2603V39.951Z" fill="#262FDC"/>
<path d="M48.0051 39.9182V40.6088L48.5663 40.6736C48.8792 40.7167 49.1706 40.7059 49.2246 40.652C49.2677 40.6088 49.3001 40.2743 49.2785 39.929L49.2461 39.2923L48.631 39.2599L48.0051 39.2275V39.9182Z" fill="#262FDC"/>
<path d="M17.5732 42.0439V42.6914H18.2207H18.8682V42.0439V41.3964H18.2207H17.5732V42.0439Z" fill="#262FDC"/>
<path d="M19.9475 42.0439V42.6914H20.5302C21.0914 42.6914 21.113 42.6806 21.1777 42.3569C21.2101 42.1734 21.2425 41.8821 21.2425 41.7094C21.2425 41.3964 21.2317 41.3964 20.595 41.3964H19.9475V42.0439Z" fill="#262FDC"/>
<path d="M36.5662 42.4433C34.1813 42.6807 32.4871 43.0692 29.854 43.9973C25.0518 45.6915 23.4871 46.0908 20.9727 46.2095C18.4367 46.339 15.5554 45.8318 13.6669 44.9146L13.095 44.634L13.6885 45.1735C14.9511 46.339 16.2784 47.0512 18.005 47.5261C18.9547 47.7851 19.2029 47.8066 21.1885 47.8066C23.023 47.8066 23.5194 47.7743 24.4691 47.5584C26.0554 47.2239 27.782 46.6196 30.1561 45.5944C33.1022 44.321 34.4835 43.803 35.9079 43.4469C37.3216 43.0908 38.9727 42.7994 39.6957 42.7887C40.4403 42.7779 39.9116 42.616 38.6813 42.4865C37.6777 42.3678 37.3324 42.3678 36.5662 42.4433Z" fill="#262FDC"/>
<path d="M46.2352 43.3284C46.2892 43.3824 46.7208 43.5335 47.1956 43.6629C48.8575 44.127 50.4762 44.7421 52.4402 45.6594C54.987 46.8464 56.1956 47.2996 57.5446 47.5586C58.1489 47.6665 58.6777 47.7637 58.7316 47.7637C58.7856 47.7637 58.2676 47.4723 57.5662 47.1162C56.8755 46.7601 55.969 46.2745 55.5482 46.0263C53.2604 44.6881 50.6057 43.7924 48.005 43.4579C46.2568 43.2421 46.1273 43.2313 46.2352 43.3284Z" fill="#262FDC"/>
<path d="M39.5339 45.2922C37.0303 45.5296 35.1202 46.0584 31.4619 47.5044C28.1058 48.8318 27.0267 49.1987 25.5483 49.5332C23.4547 49.9972 21.4583 50.1052 19.5698 49.857L19.1382 49.803L19.6993 50.1375C21.9439 51.4757 25.5051 51.7778 29.0231 50.9037L30.2533 50.6016L31.9799 52.2958C33.89 54.1627 34.9368 55.026 36.7821 56.2778C40.3217 58.6843 45.0483 60.8102 48.0051 61.3174C49.8936 61.6411 51.7389 61.4145 52.9044 60.7023C53.3576 60.4325 54.221 59.5692 54.4907 59.1267L54.7282 58.749L53.6598 57.7023C53.0771 57.1303 51.7713 55.8893 50.7569 54.9397C49.7533 54.0008 48.5879 52.9109 48.167 52.5224C47.7569 52.1231 46.7965 51.2382 46.0411 50.526C45.2749 49.8246 44.6598 49.2095 44.6598 49.1555C44.6598 48.9289 47.1526 49.3821 50.9728 50.2994C53.3361 50.8605 53.8541 50.9361 55.4512 50.9361C57.0699 50.9361 57.9332 50.785 59.0663 50.2886L59.4979 50.0944L58.7965 50.008C56.8864 49.7814 54.5879 49.1016 52.2785 48.0656C49.0411 46.6195 47.185 45.9505 45.4907 45.6159C43.3325 45.1843 41.6274 45.098 39.5339 45.2922Z" fill="#262FDC"/>
<path d="M60.696 50.1916C60.5125 50.3319 60.5017 50.3535 60.6636 50.3535C60.7607 50.3535 60.8471 50.2996 60.8471 50.2348C60.8471 50.1701 60.9442 50.1485 61.0737 50.1916C61.2356 50.2456 61.2787 50.2348 61.2356 50.1485C61.1276 49.9866 60.9442 50.0082 60.696 50.1916Z" fill="#262FDC"/>
</svg>
